<svg width="16" height="16" viewBox="0 0 16 16" fill="none" xmlns="http://www.w3.org/2000/svg">
<path d="M6.804 8.00044L1 4.63344V11.3674L6.804 8.00044ZM7.596 7.30444C7.7186 7.37463 7.82049 7.47596 7.89134 7.59818C7.9622 7.7204 7.99952 7.85916 7.99952 8.00044C7.99952 8.14171 7.9622 8.28048 7.89134 8.40269C7.82049 8.52491 7.7186 8.62624 7.596 8.69644L1.233 12.3884C0.713 12.6904 0 12.3454 0 11.6924V4.30844C0 3.65544 0.713 3.31044 1.233 3.61244L7.596 7.30444Z" fill="white"/>
<path d="M14.804 8.00044L9 4.63344V11.3674L14.804 8.00044ZM15.596 7.30444C15.7186 7.37463 15.8205 7.47596 15.8913 7.59818C15.9622 7.7204 15.9995 7.85916 15.9995 8.00044C15.9995 8.14171 15.9622 8.28048 15.8913 8.40269C15.8205 8.52491 15.7186 8.62624 15.596 8.69644L9.233 12.3884C8.713 12.6904 8 12.3454 8 11.6924V4.30844C8 3.65544 8.713 3.31044 9.233 3.61244L15.596 7.30444Z" fill="white"/>
</svg>
