<svg width="12" height="14" viewBox="0 0 12 14" fill="none" xmlns="http://www.w3.org/2000/svg">
<path d="M0.5 14C0.367392 14 0.240215 13.9473 0.146447 13.8536C0.0526785 13.7598 0 13.6326 0 13.5C0 13.3674 0.0526785 13.2402 0.146447 13.1464C0.240215 13.0527 0.367392 13 0.5 13H1.5V12C1.49979 11.151 1.73979 10.3192 2.19225 9.60078C2.64471 8.88236 3.29119 8.30659 4.057 7.94C4.347 7.801 4.5 7.563 4.5 7.35V6.65C4.5 6.437 4.346 6.199 4.057 6.06C3.29119 5.69341 2.64471 5.11764 2.19225 4.39922C1.73979 3.6808 1.49979 2.84903 1.5 2V1H0.5C0.367392 1 0.240215 0.947322 0.146447 0.853553C0.0526785 0.759785 0 0.632608 0 0.5C0 0.367392 0.0526785 0.240215 0.146447 0.146447C0.240215 0.0526784 0.367392 0 0.5 0H11.5C11.6326 0 11.7598 0.0526784 11.8536 0.146447C11.9473 0.240215 12 0.367392 12 0.5C12 0.632608 11.9473 0.759785 11.8536 0.853553C11.7598 0.947322 11.6326 1 11.5 1H10.5V2C10.5002 2.84903 10.2602 3.6808 9.80775 4.39922C9.35529 5.11764 8.70881 5.69341 7.943 6.06C7.653 6.199 7.5 6.437 7.5 6.65V7.35C7.5 7.563 7.654 7.801 7.943 7.94C8.70881 8.30659 9.35529 8.88236 9.80775 9.60078C10.2602 10.3192 10.5002 11.151 10.5 12V13H11.5C11.6326 13 11.7598 13.0527 11.8536 13.1464C11.9473 13.2402 12 13.3674 12 13.5C12 13.6326 11.9473 13.7598 11.8536 13.8536C11.7598 13.9473 11.6326 14 11.5 14H0.5ZM2.5 1V2C2.5 2.537 2.62 3.045 2.837 3.5H9.163C9.379 3.045 9.5 2.537 9.5 2V1H2.5ZM5.5 7.35C5.5 8.051 5.022 8.586 4.489 8.842C3.89329 9.12711 3.39041 9.57495 3.03845 10.1338C2.68649 10.6926 2.49982 11.3396 2.5 12C2.5 12 3.366 10.701 5.5 10.52V7.35ZM6.5 7.35V10.52C8.634 10.701 9.5 12 9.5 12C9.50018 11.3396 9.31351 10.6926 8.96155 10.1338C8.60959 9.57495 8.1067 9.12711 7.511 8.842C6.978 8.586 6.5 8.051 6.5 7.35Z" fill="white"/>
</svg>
